<mxfile host="app.diagrams.net" agent="Mozilla/5.0 (Windows NT 10.0; Win64; x64) AppleWebKit/537.36 (KHTML, like Gecko) Chrome/129.0.0.0 Safari/537.36 Edg/129.0.0.0" version="24.7.17">
  <diagram name="Page-1" id="61__jMX6YE7rNpRTHAPb">
    <mxGraphModel dx="704" dy="831" grid="1" gridSize="10" guides="1" tooltips="1" connect="1" arrows="1" fold="1" page="1" pageScale="1" pageWidth="827" pageHeight="1169" math="0" shadow="0">
      <root>
        <mxCell id="0" />
        <mxCell id="1" parent="0" />
        <mxCell id="ON4HNf2QYOWmSJjJUJaD-3" style="edgeStyle=none;curved=1;rounded=0;orthogonalLoop=1;jettySize=auto;html=1;exitX=0.5;exitY=1;exitDx=0;exitDy=0;entryX=0.5;entryY=1;entryDx=0;entryDy=0;fontSize=12;startSize=8;endSize=8;" edge="1" parent="1" source="ON4HNf2QYOWmSJjJUJaD-1" target="ON4HNf2QYOWmSJjJUJaD-2">
          <mxGeometry relative="1" as="geometry" />
        </mxCell>
        <mxCell id="ON4HNf2QYOWmSJjJUJaD-1" value="Pocetak" style="ellipse;whiteSpace=wrap;html=1;" vertex="1" parent="1">
          <mxGeometry x="240" y="10" width="120" height="50" as="geometry" />
        </mxCell>
        <mxCell id="ON4HNf2QYOWmSJjJUJaD-7" style="edgeStyle=none;curved=1;rounded=0;orthogonalLoop=1;jettySize=auto;html=1;exitX=0.5;exitY=0;exitDx=0;exitDy=0;entryX=0.5;entryY=0;entryDx=0;entryDy=0;fontSize=12;startSize=8;endSize=8;" edge="1" parent="1" source="ON4HNf2QYOWmSJjJUJaD-2" target="ON4HNf2QYOWmSJjJUJaD-6">
          <mxGeometry relative="1" as="geometry" />
        </mxCell>
        <mxCell id="ON4HNf2QYOWmSJjJUJaD-2" value="" style="shape=trapezoid;perimeter=trapezoidPerimeter;whiteSpace=wrap;html=1;fixedSize=1;rotation=-180;" vertex="1" parent="1">
          <mxGeometry x="240" y="90" width="120" height="40" as="geometry" />
        </mxCell>
        <mxCell id="ON4HNf2QYOWmSJjJUJaD-4" value="a, b, c" style="text;html=1;align=center;verticalAlign=middle;whiteSpace=wrap;rounded=0;fontSize=16;" vertex="1" parent="1">
          <mxGeometry x="270" y="95" width="60" height="30" as="geometry" />
        </mxCell>
        <mxCell id="ON4HNf2QYOWmSJjJUJaD-9" style="edgeStyle=none;curved=1;rounded=0;orthogonalLoop=1;jettySize=auto;html=1;exitX=0.5;exitY=1;exitDx=0;exitDy=0;entryX=0.5;entryY=0;entryDx=0;entryDy=0;fontSize=12;startSize=8;endSize=8;" edge="1" parent="1" source="ON4HNf2QYOWmSJjJUJaD-6" target="ON4HNf2QYOWmSJjJUJaD-8">
          <mxGeometry relative="1" as="geometry" />
        </mxCell>
        <mxCell id="ON4HNf2QYOWmSJjJUJaD-6" value="D = b * b - 4 * a * c" style="rounded=0;whiteSpace=wrap;html=1;" vertex="1" parent="1">
          <mxGeometry x="240" y="156" width="120" height="40" as="geometry" />
        </mxCell>
        <mxCell id="ON4HNf2QYOWmSJjJUJaD-16" style="edgeStyle=none;curved=1;rounded=0;orthogonalLoop=1;jettySize=auto;html=1;exitX=0;exitY=0.5;exitDx=0;exitDy=0;entryX=0.5;entryY=0;entryDx=0;entryDy=0;fontSize=12;startSize=8;endSize=8;" edge="1" parent="1" source="ON4HNf2QYOWmSJjJUJaD-8" target="ON4HNf2QYOWmSJjJUJaD-10">
          <mxGeometry relative="1" as="geometry">
            <Array as="points">
              <mxPoint x="145" y="240" />
            </Array>
          </mxGeometry>
        </mxCell>
        <mxCell id="ON4HNf2QYOWmSJjJUJaD-21" style="edgeStyle=none;curved=1;rounded=0;orthogonalLoop=1;jettySize=auto;html=1;exitX=1;exitY=0.5;exitDx=0;exitDy=0;entryX=0.5;entryY=0;entryDx=0;entryDy=0;fontSize=12;startSize=8;endSize=8;" edge="1" parent="1" source="ON4HNf2QYOWmSJjJUJaD-8" target="ON4HNf2QYOWmSJjJUJaD-20">
          <mxGeometry relative="1" as="geometry">
            <Array as="points">
              <mxPoint x="450" y="250" />
            </Array>
          </mxGeometry>
        </mxCell>
        <mxCell id="ON4HNf2QYOWmSJjJUJaD-8" value="D &amp;gt; 0" style="shape=hexagon;perimeter=hexagonPerimeter2;whiteSpace=wrap;html=1;fixedSize=1;" vertex="1" parent="1">
          <mxGeometry x="240" y="230" width="120" height="40" as="geometry" />
        </mxCell>
        <mxCell id="ON4HNf2QYOWmSJjJUJaD-19" style="edgeStyle=none;curved=1;rounded=0;orthogonalLoop=1;jettySize=auto;html=1;exitX=0.5;exitY=1;exitDx=0;exitDy=0;entryX=0.5;entryY=0;entryDx=0;entryDy=0;fontSize=12;startSize=8;endSize=8;" edge="1" parent="1" source="ON4HNf2QYOWmSJjJUJaD-10" target="ON4HNf2QYOWmSJjJUJaD-18">
          <mxGeometry relative="1" as="geometry" />
        </mxCell>
        <mxCell id="ON4HNf2QYOWmSJjJUJaD-10" value="x1 = (-b + sqrt(D)) / (2*a)&lt;div&gt;x2 = (-b - sqrt(D)) / (2*a)&lt;/div&gt;" style="rounded=0;whiteSpace=wrap;html=1;" vertex="1" parent="1">
          <mxGeometry x="70" y="270" width="150" height="60" as="geometry" />
        </mxCell>
        <mxCell id="ON4HNf2QYOWmSJjJUJaD-17" value="DA" style="text;html=1;align=center;verticalAlign=middle;whiteSpace=wrap;rounded=0;fontSize=16;" vertex="1" parent="1">
          <mxGeometry x="130" y="220" width="60" height="30" as="geometry" />
        </mxCell>
        <mxCell id="ON4HNf2QYOWmSJjJUJaD-32" style="edgeStyle=none;curved=1;rounded=0;orthogonalLoop=1;jettySize=auto;html=1;exitX=0.5;exitY=1;exitDx=0;exitDy=0;fontSize=12;startSize=8;endSize=8;" edge="1" parent="1" source="ON4HNf2QYOWmSJjJUJaD-18">
          <mxGeometry relative="1" as="geometry">
            <mxPoint x="270" y="570" as="targetPoint" />
            <Array as="points">
              <mxPoint x="150" y="540" />
              <mxPoint x="270" y="530" />
            </Array>
          </mxGeometry>
        </mxCell>
        <mxCell id="ON4HNf2QYOWmSJjJUJaD-18" value="x1, x2" style="shape=trapezoid;perimeter=trapezoidPerimeter;whiteSpace=wrap;html=1;fixedSize=1;" vertex="1" parent="1">
          <mxGeometry x="85" y="360" width="115" height="40" as="geometry" />
        </mxCell>
        <mxCell id="ON4HNf2QYOWmSJjJUJaD-24" style="edgeStyle=none;curved=1;rounded=0;orthogonalLoop=1;jettySize=auto;html=1;exitX=0;exitY=0.5;exitDx=0;exitDy=0;entryX=0.5;entryY=0;entryDx=0;entryDy=0;fontSize=12;startSize=8;endSize=8;" edge="1" parent="1" source="ON4HNf2QYOWmSJjJUJaD-20" target="ON4HNf2QYOWmSJjJUJaD-23">
          <mxGeometry relative="1" as="geometry">
            <Array as="points">
              <mxPoint x="330" y="300" />
            </Array>
          </mxGeometry>
        </mxCell>
        <mxCell id="ON4HNf2QYOWmSJjJUJaD-29" style="edgeStyle=none;curved=1;rounded=0;orthogonalLoop=1;jettySize=auto;html=1;exitX=1;exitY=0.5;exitDx=0;exitDy=0;entryX=0.5;entryY=0;entryDx=0;entryDy=0;fontSize=12;startSize=8;endSize=8;" edge="1" parent="1" source="ON4HNf2QYOWmSJjJUJaD-20" target="ON4HNf2QYOWmSJjJUJaD-28">
          <mxGeometry relative="1" as="geometry">
            <Array as="points">
              <mxPoint x="570" y="300" />
            </Array>
          </mxGeometry>
        </mxCell>
        <mxCell id="ON4HNf2QYOWmSJjJUJaD-20" value="D = 0" style="shape=hexagon;perimeter=hexagonPerimeter2;whiteSpace=wrap;html=1;fixedSize=1;" vertex="1" parent="1">
          <mxGeometry x="390" y="280" width="100" height="40" as="geometry" />
        </mxCell>
        <mxCell id="ON4HNf2QYOWmSJjJUJaD-22" value="NE" style="text;html=1;align=center;verticalAlign=middle;whiteSpace=wrap;rounded=0;fontSize=16;" vertex="1" parent="1">
          <mxGeometry x="414" y="230" width="60" height="30" as="geometry" />
        </mxCell>
        <mxCell id="ON4HNf2QYOWmSJjJUJaD-27" style="edgeStyle=none;curved=1;rounded=0;orthogonalLoop=1;jettySize=auto;html=1;exitX=0.5;exitY=1;exitDx=0;exitDy=0;entryX=0.5;entryY=0;entryDx=0;entryDy=0;fontSize=12;startSize=8;endSize=8;" edge="1" parent="1" source="ON4HNf2QYOWmSJjJUJaD-23" target="ON4HNf2QYOWmSJjJUJaD-26">
          <mxGeometry relative="1" as="geometry" />
        </mxCell>
        <mxCell id="ON4HNf2QYOWmSJjJUJaD-23" value="x = -b / (2*a)" style="rounded=0;whiteSpace=wrap;html=1;" vertex="1" parent="1">
          <mxGeometry x="280" y="330" width="110" height="30" as="geometry" />
        </mxCell>
        <mxCell id="ON4HNf2QYOWmSJjJUJaD-25" value="DA" style="text;html=1;align=center;verticalAlign=middle;whiteSpace=wrap;rounded=0;fontSize=16;" vertex="1" parent="1">
          <mxGeometry x="300" y="283" width="60" height="30" as="geometry" />
        </mxCell>
        <mxCell id="ON4HNf2QYOWmSJjJUJaD-30" style="edgeStyle=none;curved=1;rounded=0;orthogonalLoop=1;jettySize=auto;html=1;exitX=0.5;exitY=1;exitDx=0;exitDy=0;fontSize=12;startSize=8;endSize=8;" edge="1" parent="1" source="ON4HNf2QYOWmSJjJUJaD-26">
          <mxGeometry relative="1" as="geometry">
            <mxPoint x="450" y="480" as="targetPoint" />
            <Array as="points">
              <mxPoint x="340" y="460" />
              <mxPoint x="440" y="450" />
            </Array>
          </mxGeometry>
        </mxCell>
        <mxCell id="ON4HNf2QYOWmSJjJUJaD-26" value="x" style="shape=trapezoid;perimeter=trapezoidPerimeter;whiteSpace=wrap;html=1;fixedSize=1;" vertex="1" parent="1">
          <mxGeometry x="275" y="390" width="120" height="30" as="geometry" />
        </mxCell>
        <mxCell id="ON4HNf2QYOWmSJjJUJaD-31" style="edgeStyle=none;curved=1;rounded=0;orthogonalLoop=1;jettySize=auto;html=1;exitX=0.5;exitY=1;exitDx=0;exitDy=0;fontSize=12;startSize=8;endSize=8;" edge="1" parent="1" source="ON4HNf2QYOWmSJjJUJaD-28">
          <mxGeometry relative="1" as="geometry">
            <mxPoint x="450" y="480" as="targetPoint" />
            <Array as="points">
              <mxPoint x="570" y="460" />
              <mxPoint x="450" y="450" />
            </Array>
          </mxGeometry>
        </mxCell>
        <mxCell id="ON4HNf2QYOWmSJjJUJaD-28" value="NEMA RJ." style="shape=trapezoid;perimeter=trapezoidPerimeter;whiteSpace=wrap;html=1;fixedSize=1;" vertex="1" parent="1">
          <mxGeometry x="500" y="340" width="120" height="40" as="geometry" />
        </mxCell>
        <mxCell id="ON4HNf2QYOWmSJjJUJaD-33" value="" style="endArrow=classic;html=1;rounded=0;fontSize=12;startSize=8;endSize=8;curved=1;" edge="1" parent="1">
          <mxGeometry width="50" height="50" relative="1" as="geometry">
            <mxPoint x="450" y="480" as="sourcePoint" />
            <mxPoint x="270" y="570" as="targetPoint" />
            <Array as="points">
              <mxPoint x="450" y="540" />
              <mxPoint x="290" y="520" />
            </Array>
          </mxGeometry>
        </mxCell>
        <mxCell id="ON4HNf2QYOWmSJjJUJaD-34" value="KRAJ" style="ellipse;whiteSpace=wrap;html=1;" vertex="1" parent="1">
          <mxGeometry x="210" y="570" width="110" height="50" as="geometry" />
        </mxCell>
      </root>
    </mxGraphModel>
  </diagram>
</mxfile>
